<svg width="895" height="674" viewBox="0 0 895 674" fill="none" xmlns="http://www.w3.org/2000/svg">
<g clip-path="url(#clip0_118_591)">
<path opacity="0.1" d="M753.31 132.063C759.175 187.993 804.866 234.872 848.012 266.302C862.447 276.827 878.035 287.675 887.138 304.985C898.263 326.108 896.305 351.019 889.176 369.925C876.19 404.393 847.134 426.338 813.526 427.015C784.526 427.612 753.455 413.412 724.624 415.031C676.371 417.707 644.616 463.531 624.107 512.062C609.607 546.393 595.55 586.511 563.287 595.07C540.586 601.114 513.665 589.251 490.932 571.247C479.952 562.552 469.125 552.156 457.098 548.36C449.961 546.103 442.896 546.377 436.154 547.352C374.52 556.29 333.807 620.682 271.079 625.219C228.714 628.313 182.314 602.726 144.259 566.388C106.205 530.05 75.1909 483.557 45.788 436.936C24.8918 403.805 3.57669 367.499 0.410847 329.799C-2.98056 289.907 15.7165 256.414 42.1146 239.804C68.5128 223.195 101.726 221.268 134.536 224.847C175.572 229.303 219.394 241.666 254.855 225.806C279.021 215.007 296.413 192.208 315.215 172.334C346.632 139.115 383.196 113.181 419.889 87.9158C455.012 63.7387 490.779 39.8518 531.057 26.6672C559.606 17.3107 589.943 20.4699 619.273 15.0381C638.397 11.5002 654.299 0.531839 674.39 0.0563569C699.136 -0.572247 729.675 10.0737 745.19 41.4797C759.964 71.3062 750.193 102.382 753.31 132.063Z" fill="#6C63FF"/>
<path d="M636.456 10.9765L581.436 7.64009L549.601 5.36745V5.31104H549.206H548.763V5.37551L377.573 19.0758H363.38L361.712 78.1888L389.27 87.9079L405.969 172.931L329.981 323.529L284.064 358.344V391.54L311.622 418.263L313.29 540.535L321.644 542.147V540.849L325.841 541.655V542.138L488.926 597.004L495.781 601.654L510.12 592.717L625.637 525.948L636.456 10.9765ZM461.126 390.814L505.802 352.937L461.126 390.814ZM306.177 406.529L318.26 418.271V418.997L306.177 406.529Z" fill="url(#paint0_linear_118_591)"/>
<path d="M328.144 420.745L490.867 461.846L466.7 434.445L453.006 417.522L310.422 389.315L303.978 394.956L328.144 420.745Z" fill="#535461"/>
<path d="M303.978 394.957L464.284 432.028L465.089 393.345L419.172 375.615L327.339 360.303H300.755L303.978 394.957Z" fill="#D6D6E3"/>
<path d="M419.978 175.751L583.506 186.228V155.604L572.229 87.102L566.59 82.2666L403.061 87.102L419.978 175.751Z" fill="#D6D6E3"/>
<path d="M381.311 21.8237H373.256L371.645 80.6546L398.228 90.3254L414.339 174.945L341.033 324.843L296.728 359.497V392.539L323.311 419.133L324.922 540.825L332.978 542.436L331.367 421.551L304.783 393.345L303.978 359.497L346.672 325.649L421.589 175.751L405.478 90.3254L378.895 79.0428L381.311 21.8237Z" fill="#D6D6E3"/>
<path d="M374.867 21.8237H366.811L365.2 80.6546L391.783 90.3254L407.895 174.945L334.589 324.843L290.283 359.497V392.539L316.867 419.133L318.478 540.825L326.533 542.436L324.922 421.551L298.339 393.345L297.533 359.497L341.839 325.649L415.145 175.751L399.034 90.3254L372.45 79.0428L374.867 21.8237Z" fill="#535461"/>
<path d="M374.464 74.6104L378.492 80.2517L401.047 90.7284L579.881 85.893L562.562 80.6547L544.034 72.5957L546.451 66.1484L374.464 74.6104Z" fill="#A8A8A8"/>
<path d="M344.256 328.066L507.784 354.661L540.812 284.548L585.923 183.81L419.978 175.751L344.256 328.066Z" fill="#6C63FF"/>
<g opacity="0.1">
<path opacity="0.1" d="M428.839 204.764L539.201 213.629L482.006 326.455L374.867 310.337L428.839 204.764Z" fill="white"/>
</g>
<g opacity="0.1">
<path opacity="0.1" d="M436.452 212.959L441.325 213.354L438.804 218.327L434.075 217.618L436.452 212.959Z" fill="white"/>
</g>
<g opacity="0.1">
<path opacity="0.1" d="M437.257 259.702L442.131 260.097L439.609 265.069L434.881 264.36L437.257 259.702Z" fill="white"/>
</g>
<g opacity="0.1">
<path opacity="0.1" d="M463.841 218.601L468.714 218.996L466.193 223.968L461.464 223.259L463.841 218.601Z" fill="white"/>
</g>
<g opacity="0.1">
<path opacity="0.1" d="M514.591 221.019L519.465 221.413L516.943 226.386L512.215 225.677L514.591 221.019Z" fill="white"/>
</g>
<g opacity="0.1">
<path opacity="0.1" d="M446.118 227.466L450.992 227.861L448.471 232.833L443.742 232.124L446.118 227.466Z" fill="white"/>
</g>
<g opacity="0.1">
<path opacity="0.1" d="M463.841 276.626L468.714 277.021L466.193 281.993L461.464 281.284L463.841 276.626Z" fill="white"/>
</g>
<g opacity="0.1">
<path opacity="0.1" d="M420.341 248.419L425.214 248.814L422.693 253.787L417.964 253.078L420.341 248.419Z" fill="white"/>
</g>
<g opacity="0.1">
<path opacity="0.1" d="M494.452 218.601L499.326 218.996L496.804 223.968L492.076 223.259L494.452 218.601Z" fill="white"/>
</g>
<g opacity="0.1">
<path opacity="0.1" d="M455.785 246.001L460.659 246.396L458.137 251.369L453.409 250.66L455.785 246.001Z" fill="white"/>
</g>
<g opacity="0.1">
<path opacity="0.1" d="M450.146 215.377L455.02 215.772L452.498 220.745L447.77 220.036L450.146 215.377Z" fill="white"/>
</g>
<g opacity="0.1">
<path opacity="0.1" d="M475.119 243.584L479.992 243.979L477.471 248.951L472.742 248.242L475.119 243.584Z" fill="white"/>
</g>
<g opacity="0.1">
<path opacity="0.1" d="M480.758 218.601L485.631 218.996L483.11 223.968L478.381 223.259L480.758 218.601Z" fill="white"/>
</g>
<g opacity="0.1">
<path opacity="0.1" d="M430.007 229.884L434.881 230.279L432.359 235.251L427.631 234.542L430.007 229.884Z" fill="white"/>
</g>
<path d="M300.755 360.303L460.256 392.539L504.191 354.081L344.658 326.858L300.755 360.303Z" fill="#D6D6E3"/>
<path d="M330.561 416.716V542.437L488.451 597.238L490.867 466.682L484.423 454.537L455.423 447.34L330.561 416.716Z" fill="#535461"/>
<path d="M351.103 342.573C354.884 342.573 357.95 340.769 357.95 338.543C357.95 336.318 354.884 334.514 351.103 334.514C347.321 334.514 344.256 336.318 344.256 338.543C344.256 340.769 347.321 342.573 351.103 342.573Z" fill="#575988"/>
<path d="M356.742 351.438C360.523 351.438 363.589 349.634 363.589 347.408C363.589 345.183 360.523 343.379 356.742 343.379C352.96 343.379 349.895 345.183 349.895 347.408C349.895 349.634 352.96 351.438 356.742 351.438Z" fill="#FA595F"/>
<path d="M337.408 349.02C341.19 349.02 344.256 347.216 344.256 344.99C344.256 342.765 341.19 340.961 337.408 340.961C333.627 340.961 330.561 342.765 330.561 344.99C330.561 347.216 333.627 349.02 337.408 349.02Z" fill="#FFD037"/>
<path d="M424.409 357.079C428.19 357.079 431.256 355.275 431.256 353.05C431.256 350.824 428.19 349.02 424.409 349.02C420.627 349.02 417.561 350.824 417.561 353.05C417.561 355.275 420.627 357.079 424.409 357.079Z" fill="#575988"/>
<path d="M410.714 364.332C414.496 364.332 417.561 362.528 417.561 360.302C417.561 358.077 414.496 356.273 410.714 356.273C406.933 356.273 403.867 358.077 403.867 360.302C403.867 362.528 406.933 364.332 410.714 364.332Z" fill="#FFD037"/>
<path d="M384.936 353.05C390.498 353.05 395.006 350.885 395.006 348.214C395.006 345.544 390.498 343.379 384.936 343.379C379.375 343.379 374.867 345.544 374.867 348.214C374.867 350.885 379.375 353.05 384.936 353.05Z" fill="#A8A8A8"/>
<path d="M431.659 365.944C435.44 365.944 438.506 364.14 438.506 361.914C438.506 359.689 435.44 357.885 431.659 357.885C427.877 357.885 424.811 359.689 424.811 361.914C424.811 364.14 427.877 365.944 431.659 365.944Z" fill="#FA595F"/>
<path d="M387.756 347.416H382.922L378.766 331.363C378.591 330.687 378.573 329.981 378.714 329.298C378.854 328.614 379.149 327.972 379.576 327.421C380.003 326.869 380.551 326.423 381.177 326.116C381.803 325.808 382.491 325.649 383.188 325.649C384.4 325.649 385.561 326.13 386.418 326.987C387.275 327.844 387.756 329.006 387.756 330.218V347.416Z" fill="#A8A8A8"/>
<path d="M457.437 365.944C462.998 365.944 467.506 363.779 467.506 361.108C467.506 358.438 462.998 356.273 457.437 356.273C451.875 356.273 447.367 358.438 447.367 361.108C447.367 363.779 451.875 365.944 457.437 365.944Z" fill="#A8A8A8"/>
<path d="M460.256 360.311H455.423L451.266 344.257C451.091 343.582 451.074 342.876 451.214 342.192C451.355 341.509 451.65 340.867 452.077 340.315C452.504 339.764 453.051 339.317 453.677 339.01C454.303 338.703 454.991 338.543 455.689 338.543C456.9 338.543 458.062 339.025 458.918 339.882C459.775 340.739 460.256 341.901 460.256 343.113V360.311Z" fill="#A8A8A8"/>
<path d="M380.506 21.8239L546.451 8.12354L542.423 68.5662L376.478 76.6252L380.506 21.8239Z" fill="#535461"/>
<path d="M545.645 8.12354L622.173 13.7648L611.701 526.318L494.492 601.67L486.437 596.029L486.034 461.846L460.256 432.834V392.539L505.367 353.05L581.895 183.004L571.02 85.8931H576.659L540.812 73.4016L545.645 8.12354Z" fill="#D6D6E3"/>
<path d="M552.895 8.9292L630.229 13.7646L619.757 526.318L494.089 601.267V461.846L468.312 432.834V392.539L513.423 353.049L589.951 183.004L576.256 85.4899L548.867 73.4014L552.895 8.9292Z" fill="#535461"/>
<path d="M416.844 319.443C405.567 342.814 377.807 336.754 377.807 336.754C376.373 335.424 367.399 333.2 360.592 331.661C356.226 330.669 352.754 329.976 352.754 329.976L362.284 316.687L369.429 318.154L380.087 320.346C380.087 320.346 428.163 296.08 416.844 319.443Z" fill="url(#paint1_linear_118_591)"/>
<g opacity="0.08">
<path opacity="0.08" d="M416.844 319.443C405.567 342.814 377.807 336.754 377.807 336.754C376.373 335.424 367.399 333.2 360.592 331.661C356.226 330.669 352.754 329.976 352.754 329.976L362.284 316.687L369.429 318.154L380.087 320.346C380.087 320.346 428.163 296.08 416.844 319.443Z" fill="url(#paint2_linear_118_591)"/>
</g>
<g opacity="0.1">
<path opacity="0.1" d="M369.437 318.154L360.576 331.669C356.21 330.678 352.738 329.985 352.738 329.985L362.268 316.695L369.437 318.154Z" fill="url(#paint3_linear_118_591)"/>
</g>
<path d="M270.37 269.848C270.37 269.848 311.912 334.796 356.395 334.642L368.479 316.107C368.479 316.107 327.766 287.014 322.352 271.847C320.355 266.205 316.23 258.477 311.832 250.893C298.323 227.659 261.887 242.834 269.894 268.365C270.05 268.87 270.209 269.364 270.37 269.848Z" fill="url(#paint4_linear_118_591)"/>
<g opacity="0.05">
<path opacity="0.05" d="M270.37 269.848C270.37 269.848 311.912 334.796 356.395 334.642L368.479 316.107C368.479 316.107 327.766 287.014 322.352 271.847C320.355 266.205 316.23 258.477 311.832 250.893C298.323 227.659 261.887 242.834 269.894 268.365C270.05 268.87 270.209 269.364 270.37 269.848Z" fill="url(#paint5_linear_118_591)"/>
</g>
<path d="M243.327 647.357L245.276 669.922C245.276 669.922 309.085 659.316 308.529 638.113C307.973 616.91 243.327 647.357 243.327 647.357Z" fill="url(#paint6_linear_118_591)"/>
<g opacity="0.1">
<path opacity="0.1" d="M243.327 647.357L245.276 669.922C245.276 669.922 309.085 659.316 308.529 638.113C307.973 616.91 243.327 647.357 243.327 647.357Z" fill="url(#paint7_linear_118_591)"/>
</g>
<path d="M318.002 654.425L316.891 674C316.891 674 405.502 667.472 402.151 649.017C398.8 630.562 351.997 640.829 351.997 640.829L318.002 654.425Z" fill="url(#paint8_linear_118_591)"/>
<path d="M319.114 463.023C319.114 463.023 313.878 477.529 307.192 494.147C300.796 510.055 293.078 527.938 287.351 536.973C275.646 555.46 273.979 612.558 273.979 612.558C271.747 621.802 282.896 639.749 282.896 639.749C260.606 663.12 239.984 649.541 239.984 649.541C243.883 642.473 237.197 622.35 237.197 622.35C237.197 622.35 246.114 529.365 251.697 525.013C257.279 520.661 261.726 498.91 261.726 498.91L256.74 424.992L255.596 408.069L303.518 386.865L306.974 403.725L310.398 420.415L319.114 463.023Z" fill="url(#paint9_linear_118_591)"/>
<g opacity="0.1">
<path opacity="0.1" d="M319.114 463.023C319.114 463.023 313.878 477.529 307.192 494.147C300.796 510.055 293.078 527.938 287.351 536.973C275.646 555.46 273.979 612.558 273.979 612.558C271.747 621.802 282.896 639.749 282.896 639.749C260.606 663.12 239.984 649.541 239.984 649.541C243.883 642.473 237.197 622.35 237.197 622.35C237.197 622.35 246.114 529.365 251.697 525.013C257.279 520.661 261.726 498.91 261.726 498.91L256.74 424.992L255.596 408.069L303.518 386.865L306.974 403.725L310.398 420.415L319.114 463.023Z" fill="url(#paint10_linear_118_591)"/>
</g>
<path d="M360.906 643.013C350.877 660.413 315.795 658.237 315.795 658.237V607.118C315.795 607.118 305.766 550.02 311.34 537.005C316.915 523.99 309.109 500.03 309.109 500.03L307.192 494.155L284.467 424.042L277.877 403.717H353.109C353.109 403.717 353.109 407.198 353.109 412.856C353.205 434.615 353.656 488.538 355.872 501.054C358.659 516.825 350.853 527.157 350.853 527.157C350.853 527.157 355.308 591.323 351.409 611.438C347.51 631.553 360.906 643.013 360.906 643.013Z" fill="url(#paint11_linear_118_591)"/>
<path d="M299.056 165.033C299.056 165.033 287.351 196.568 263.949 207.987C240.548 219.407 302.399 222.671 302.399 222.671C302.399 222.671 312.428 198.744 335.274 181.884L299.056 165.033Z" fill="url(#paint12_linear_118_591)"/>
<g opacity="0.1">
<path opacity="0.1" d="M353.133 412.888C343.804 414.685 327.298 417.763 310.39 420.439C301.529 421.841 292.571 423.131 284.467 424.065C271.997 425.508 261.565 426.112 256.732 424.984L255.588 408.06L303.51 386.857L306.966 403.716H353.109C353.109 403.716 353.109 407.23 353.133 412.888Z" fill="url(#paint13_linear_118_591)"/>
</g>
<path d="M360.906 409.729C360.906 409.729 266.729 428.764 255.032 422.784C243.335 416.804 240.532 401.581 243.883 384.721C247.234 367.862 243.883 325.995 237.753 272.701C234.667 245.865 241.466 227.853 248.99 216.586C252.292 211.73 256.739 207.761 261.937 205.03C267.135 202.299 272.925 200.89 278.796 200.927C288.982 200.886 298.882 204.294 306.886 210.598C309.238 212.476 311.614 214.015 313.556 214.539C315.086 214.95 317.39 216.578 320 218.794C331.622 228.808 338.918 242.934 340.357 258.211C341.323 268.341 342.346 281.099 342.846 293.993C343.359 305.005 343.246 316.036 342.508 327.035C341.99 335.087 342.374 343.172 343.651 351.14C347.993 380.523 360.906 409.729 360.906 409.729Z" fill="url(#paint14_linear_118_591)"/>
<g opacity="0.1">
<path opacity="0.1" d="M343.659 351.18C309.48 330.371 291.806 272.153 291.806 272.153C291.806 271.645 291.806 271.146 291.749 270.654C290.984 243.954 330.279 238.813 336.949 264.723C339.116 273.16 340.977 281.719 341.364 287.634C341.574 289.811 342.076 291.949 342.854 293.993C343.367 305.004 343.254 316.036 342.515 327.035C341.995 335.101 342.379 343.199 343.659 351.18Z" fill="url(#paint15_linear_118_591)"/>
</g>
<g opacity="0.1">
<path opacity="0.1" d="M293.199 183.794C298.758 192.989 303.156 202.249 314.442 203.821C319.983 196.787 326.423 190.511 333.598 185.156L297.348 168.296C297.348 168.296 299.475 174.051 293.199 183.794Z" fill="url(#paint16_linear_118_591)"/>
</g>
<path d="M321.345 200.911C341.659 200.911 358.127 184.844 358.127 165.025C358.127 145.205 341.659 129.138 321.345 129.138C301.031 129.138 284.564 145.205 284.564 165.025C284.564 184.844 301.031 200.911 321.345 200.911Z" fill="url(#paint17_linear_118_591)"/>
<g opacity="0.1">
<path opacity="0.1" d="M357.7 176.283C359.222 176.348 360.728 175.949 362.018 175.139C363.782 173.857 364.346 171.561 364.749 169.449C365.708 164.461 366.457 159.206 364.749 154.403C363.645 151.228 361.527 148.479 360.045 145.465C356.742 138.881 356.154 130.959 351.441 125.245C348.501 121.667 338.166 125.245 333.848 123.44C324.568 119.54 320.54 111.626 310.43 111.634C306.725 111.543 303.028 112.005 299.458 113.004C294.939 114.398 290.944 117.033 287.23 119.926C280.786 124.939 274.47 131.822 275.042 139.864C275.413 144.998 278.546 149.535 280.391 154.322C283.484 162.381 282.92 171.44 280.689 179.789C279.738 183.343 278.651 187.59 281.172 190.306C282.783 192.006 285.337 192.49 287.617 192.119C289.891 191.615 292.067 190.744 294.061 189.54C297.686 187.614 301.36 185.656 304.292 182.827C306.233 180.957 307.796 178.749 309.641 176.791C313.253 173.046 317.342 169.794 321.805 167.12C325.373 164.976 329.055 166.314 332.801 167.708C341.033 170.73 348.646 176.444 357.7 176.283Z" fill="url(#paint18_linear_118_591)"/>
</g>
<path d="M357.144 175.735C358.666 175.8 360.172 175.401 361.462 174.59C363.226 173.309 363.79 171.012 364.193 168.901C365.152 163.912 365.901 158.658 364.193 153.855C363.089 150.679 360.971 147.931 359.489 144.917C356.186 138.333 355.598 130.411 350.885 124.697C347.945 121.119 338.166 125.245 333.848 123.432C324.568 119.531 319.984 111.077 309.874 111.085C306.169 110.995 302.472 111.457 298.903 112.455C294.383 113.85 290.388 116.485 286.674 119.378C280.23 124.391 273.914 131.273 274.486 139.316C274.857 144.45 277.99 148.987 279.835 153.774C282.928 161.833 282.364 170.891 280.133 179.24C279.182 182.794 278.095 187.042 280.616 189.757C282.227 191.458 284.781 191.941 287.061 191.571C289.335 191.067 291.511 190.196 293.505 188.992C297.13 187.066 300.804 185.107 303.736 182.279C305.677 180.409 307.24 178.201 309.085 176.242C312.697 172.498 316.787 169.246 321.249 166.572C324.817 164.428 328.499 165.766 332.245 167.16C340.477 170.182 348.09 175.896 357.144 175.735Z" fill="url(#paint19_linear_118_591)"/>
<g opacity="0.05">
<path opacity="0.05" d="M343.659 351.18C342.382 343.213 341.998 335.128 342.516 327.075C343.254 316.077 343.367 305.045 342.854 294.033C342.354 281.139 341.339 268.382 340.365 258.251C338.919 242.959 331.605 228.822 319.96 218.811C317.374 216.594 315.07 214.958 313.515 214.555C311.574 214.04 309.198 212.492 306.845 210.615C298.935 204.304 308.988 216.594 311.574 218.811C323.22 228.822 330.533 242.959 331.979 258.251C332.946 268.382 333.969 281.139 334.468 294.033C334.981 305.045 334.868 316.077 334.13 327.075C333.612 335.128 333.996 343.213 335.274 351.18C339.608 380.539 352.521 409.729 352.521 409.729C352.521 409.729 289.478 422.47 260.139 423.824C283.13 425.436 360.874 409.729 360.874 409.729C360.874 409.729 347.993 380.523 343.659 351.18Z" fill="url(#paint20_linear_118_591)"/>
</g>
<path d="M420.534 356.442C403.255 376.018 378.186 362.97 378.186 362.97C377.163 361.31 369.123 356.837 362.993 353.582C359.054 351.494 355.896 349.915 355.896 349.915L368.712 339.583L375.197 342.855L384.864 347.739C384.864 347.739 437.829 336.867 420.534 356.442Z" fill="url(#paint21_linear_118_591)"/>
<g opacity="0.1">
<path opacity="0.1" d="M375.197 342.855L362.993 353.582C359.054 351.494 355.896 349.915 355.896 349.915L368.712 339.583L375.197 342.855Z" fill="url(#paint22_linear_118_591)"/>
</g>
<path d="M292.925 270.525C292.925 270.525 315.215 343.935 358.127 355.354L374.843 340.671C374.843 340.671 343.579 302.036 342.483 286.007C342.089 280.083 340.236 271.5 338.069 263.095C331.399 237.193 292.104 242.327 292.869 269.026C292.885 269.52 292.904 270.02 292.925 270.525Z" fill="url(#paint23_linear_118_591)"/>
<path opacity="0.05" d="M249.739 342.033C249.739 342.033 264.239 330.613 277.604 339.317C290.968 348.021 310.478 346.933 313.266 347.473" fill="url(#paint24_linear_118_591)"/>
<path d="M412.672 318.25C401.918 341.041 375.519 335.174 375.519 335.174C374.15 333.877 365.611 331.709 359.142 330.21C354.986 329.243 351.683 328.598 351.683 328.598L360.753 315.631L367.552 317.066L377.694 319.201C377.694 319.201 423.426 295.452 412.672 318.25Z" fill="#F7C4A7"/>
<path opacity="0.08" d="M412.672 318.25C401.918 341.041 375.519 335.174 375.519 335.174C374.15 333.877 365.611 331.709 359.142 330.21C354.986 329.243 351.683 328.598 351.683 328.598L360.753 315.631L367.552 317.066L377.694 319.201C377.694 319.201 423.426 295.452 412.672 318.25Z" fill="black"/>
<path opacity="0.1" d="M367.552 316.986L359.142 330.17C354.986 329.203 351.683 328.558 351.683 328.558L360.753 315.591L367.552 316.986Z" fill="black"/>
<path d="M273.278 269.857C273.278 269.857 312.815 333.233 355.139 333.071L366.65 315.019C366.65 315.019 327.911 286.635 322.755 271.831C320.854 266.367 316.931 258.792 312.75 251.409C299.861 228.747 265.222 243.552 272.835 268.462C272.98 268.919 273.127 269.384 273.278 269.857Z" fill="#575988"/>
<path opacity="0.05" d="M273.278 269.857C273.278 269.857 312.815 333.233 355.139 333.071L366.65 315.019C366.65 315.019 327.911 286.635 322.755 271.831C320.854 266.367 316.931 258.792 312.75 251.409C299.861 228.747 265.222 243.552 272.835 268.462C272.98 268.919 273.127 269.384 273.278 269.857Z" fill="black"/>
<path d="M247.54 638.194L249.393 660.211C249.393 660.211 310.116 649.863 309.584 629.176C309.053 608.488 247.54 638.194 247.54 638.194Z" fill="#535461"/>
<path opacity="0.1" d="M247.54 638.194L249.393 660.211C249.393 660.211 310.116 649.863 309.584 629.176C309.053 608.488 247.54 638.194 247.54 638.194Z" fill="black"/>
<path d="M318.607 645.092L317.543 664.2C317.543 664.2 401.869 657.833 398.687 639.797C395.505 621.761 350.958 631.835 350.958 631.835L318.607 645.092Z" fill="#535461"/>
<path d="M319.662 458.333C319.662 458.333 314.675 472.468 308.312 488.699C302.221 504.221 294.875 521.669 289.429 530.485C278.329 548.529 276.717 604.233 276.717 604.233C274.599 613.251 285.2 630.764 285.2 630.764C263.99 653.579 244.366 640.313 244.366 640.313C248.08 633.415 241.716 613.783 241.716 613.783C241.716 613.783 250.198 523.055 255.507 518.816C260.816 514.577 265.045 493.349 265.045 493.349L260.3 421.229L259.213 404.748L304.823 384.053L308.134 400.501L311.357 416.788L319.662 458.333Z" fill="#6A5C99"/>
<path opacity="0.1" d="M319.662 458.333C319.662 458.333 314.675 472.468 308.312 488.699C302.221 504.221 294.875 521.669 289.429 530.485C278.329 548.529 276.717 604.233 276.717 604.233C274.599 613.251 285.2 630.764 285.2 630.764C263.99 653.579 244.366 640.313 244.366 640.313C248.08 633.415 241.716 613.783 241.716 613.783C241.716 613.783 250.198 523.055 255.507 518.816C260.816 514.577 265.045 493.349 265.045 493.349L260.3 421.229L259.213 404.748L304.823 384.053L308.134 400.501L311.357 416.788L319.662 458.333Z" fill="black"/>
<path d="M359.44 633.947C349.894 650.927 316.48 648.8 316.48 648.8V598.922C316.48 598.922 306.934 543.21 312.235 530.477C317.535 517.744 310.116 494.397 310.116 494.397L308.312 488.691L286.682 420.318L280.415 400.493H352.013C352.013 400.493 352.013 403.886 352.013 409.414C352.102 430.634 352.537 483.259 354.647 495.469C357.298 510.853 349.87 520.935 349.87 520.935C349.87 520.935 354.116 583.538 350.402 603.137C346.688 622.737 359.44 633.947 359.44 633.947Z" fill="#6A5C99"/>
<path d="M300.57 167.587C300.57 167.587 289.429 198.357 267.155 209.494C244.882 220.632 303.752 223.823 303.752 223.823C303.752 223.823 313.298 200.452 335.04 184.028L300.57 167.587Z" fill="#F7C4A7"/>
<path opacity="0.1" d="M352.037 409.422C343.16 411.147 327.468 414.177 311.356 416.788C302.93 418.158 294.399 419.415 286.682 420.326C274.816 421.728 264.884 422.325 260.284 421.221L259.197 404.74L304.807 384.044L308.134 400.501H352.045C352.045 400.501 352.013 403.894 352.037 409.422Z" fill="black"/>
<path d="M359.44 406.311C359.44 406.311 269.814 424.847 258.681 419.045C247.548 413.242 244.89 398.349 248.072 381.909C251.254 365.468 248.072 324.609 242.24 272.612C239.299 246.429 245.776 228.86 252.929 217.859C256.01 213.15 260.217 209.283 265.168 206.609C270.119 203.936 275.659 202.539 281.285 202.547C291.013 202.513 300.455 205.841 308.013 211.968C310.253 213.798 312.517 215.305 314.361 215.812C315.819 216.207 318.01 217.803 320.467 219.963C331.608 229.844 338.556 243.609 339.889 258.444C340.816 268.325 341.782 280.776 342.258 293.364C342.748 304.107 342.644 314.869 341.944 325.6C341.451 333.455 341.815 341.341 343.031 349.117C347.148 377.855 359.44 406.311 359.44 406.311Z" fill="#575988"/>
<path opacity="0.1" d="M343.023 349.213C310.495 328.913 293.674 272.105 293.674 272.105C293.674 271.613 293.674 271.122 293.618 270.646C292.893 244.599 330.287 239.579 336.635 264.86C338.697 273.096 340.461 281.437 340.832 287.215C341.032 289.337 341.508 291.423 342.25 293.421C342.74 304.164 342.635 314.926 341.935 325.657C341.44 333.525 341.804 341.424 343.023 349.213Z" fill="black"/>
<path opacity="0.1" d="M295.004 185.889C300.288 194.859 304.477 203.901 315.223 205.425C320.476 198.581 326.605 192.457 333.453 187.211L298.983 170.763C298.983 170.763 300.973 176.388 295.004 185.889Z" fill="black"/>
<path d="M321.789 202.604C341.119 202.604 356.79 186.926 356.79 167.587C356.79 148.248 341.119 132.571 321.789 132.571C302.458 132.571 286.787 148.248 286.787 167.587C286.787 186.926 302.458 202.604 321.789 202.604Z" fill="#F7C4A7"/>
<path opacity="0.1" d="M356.387 178.563C357.84 178.622 359.276 178.228 360.496 177.435C362.171 176.186 362.711 173.938 363.09 171.883C364 167.047 364.701 161.889 363.09 157.199C362.042 154.096 360.053 151.421 358.611 148.479C355.461 142.032 354.905 134.328 350.426 128.751C347.623 125.261 337.795 128.751 333.679 126.986C324.817 123.182 321.015 115.461 311.397 115.469C307.858 115.379 304.327 115.83 300.925 116.807C296.623 118.161 292.821 120.756 289.292 123.561C283.138 128.452 277.144 135.166 277.692 143.015C278.047 148.028 281.027 152.412 282.783 157.118C285.732 165 285.2 173.825 283.065 181.964C282.163 185.43 281.124 189.572 283.524 192.232C285.023 193.884 287.488 194.367 289.687 193.996C291.866 193.506 293.949 192.656 295.85 191.482C299.297 189.604 302.793 187.694 305.581 184.938C307.425 183.109 308.916 180.957 310.672 179.047C314.096 175.403 317.989 172.23 322.248 169.61C325.647 167.523 329.135 168.804 332.72 170.182C340.526 173.148 347.768 178.725 356.387 178.563Z" fill="black"/>
<path d="M355.856 178.032C357.307 178.095 358.742 177.707 359.964 176.92C361.64 175.671 362.179 173.422 362.558 171.367C363.468 166.532 364.169 161.374 362.558 156.684C361.511 153.581 359.521 150.905 358.079 147.964C354.929 141.517 354.373 133.812 349.895 128.235C347.091 124.746 337.811 128.775 333.679 127.002C324.817 123.198 320.484 114.914 310.865 114.914C307.327 114.823 303.795 115.274 300.393 116.252C296.091 117.605 292.289 120.2 288.761 123.005C282.606 127.897 276.613 134.61 277.161 142.459C277.515 147.472 280.496 151.856 282.252 156.563C285.2 164.444 284.668 173.269 282.534 181.409C281.631 184.874 280.592 189.016 282.993 191.676C284.491 193.328 286.956 193.812 289.155 193.441C291.335 192.95 293.417 192.101 295.318 190.926C298.766 189.049 302.262 187.139 305.049 184.382C306.894 182.553 308.384 180.401 310.14 178.491C313.601 174.851 317.532 171.688 321.829 169.086C325.228 166.999 328.716 168.281 332.301 169.659C339.994 172.6 347.236 178.193 355.856 178.032Z" fill="#632652"/>
<path opacity="0.05" d="M343.023 349.214C341.82 341.444 341.466 333.567 341.968 325.722C342.668 314.99 342.773 304.228 342.282 293.485C341.807 280.897 340.84 268.454 339.914 258.566C338.58 243.73 331.633 229.965 320.492 220.084C318.035 217.916 315.844 216.328 314.385 215.934C312.541 215.426 310.277 213.919 308.038 212.089C300.506 205.932 310.076 217.924 312.541 220.084C323.682 229.965 330.629 243.73 331.963 258.566C332.889 268.446 333.856 280.897 334.331 293.485C334.822 304.228 334.717 314.99 334.017 325.722C333.524 333.577 333.889 341.462 335.104 349.238C339.229 377.88 351.522 406.36 351.522 406.36C351.522 406.36 291.524 418.787 263.611 420.117C285.49 421.729 359.473 406.36 359.473 406.36C359.473 406.36 347.148 377.855 343.023 349.214Z" fill="black"/>
<path d="M416.184 354.347C399.742 373.447 375.906 360.714 375.906 360.714C374.939 359.102 367.286 354.726 361.406 351.558C357.66 349.52 354.655 347.98 354.655 347.98L366.851 337.898L373.022 341.122L382.246 345.869C382.246 345.869 432.625 335.247 416.184 354.347Z" fill="#F7C4A7"/>
<path opacity="0.1" d="M373.038 341.09L361.422 351.567C357.676 349.528 354.671 347.989 354.671 347.989L366.868 337.907L373.038 341.09Z" fill="black"/>
<path d="M294.738 270.517C294.738 270.517 315.948 342.146 356.766 353.283L372.676 338.954C372.676 338.954 342.87 301.262 341.879 285.62C341.501 279.842 339.744 271.492 337.674 263.264C331.326 237.991 293.932 243.004 294.665 269.051C294.692 269.534 294.716 270.023 294.738 270.517Z" fill="#575988"/>
<path opacity="0.05" d="M253.638 340.284C253.638 340.284 267.429 329.138 280.157 337.633C292.885 346.127 311.445 345.063 314.095 345.595" fill="black"/>
</g>
<defs>
<linearGradient id="paint0_linear_118_591" x1="460.256" y1="601.679" x2="460.256" y2="5.31104" gradientUnits="userSpaceOnUse">
<stop stop-color="#808080" stop-opacity="0.25"/>
<stop offset="0.54" stop-color="#808080" stop-opacity="0.12"/>
<stop offset="1" stop-color="#808080" stop-opacity="0.1"/>
</linearGradient>
<linearGradient id="paint1_linear_118_591" x1="385.661" y1="337.463" x2="385.661" y2="309.289" gradientUnits="userSpaceOnUse">
<stop stop-color="#808080" stop-opacity="0.25"/>
<stop offset="0.54" stop-color="#808080" stop-opacity="0.12"/>
<stop offset="1" stop-color="#808080" stop-opacity="0.1"/>
</linearGradient>
<linearGradient id="paint2_linear_118_591" x1="385.661" y1="337.463" x2="385.661" y2="309.289" gradientUnits="userSpaceOnUse">
<stop stop-color="#808080" stop-opacity="0.25"/>
<stop offset="0.54" stop-color="#808080" stop-opacity="0.12"/>
<stop offset="1" stop-color="#808080" stop-opacity="0.1"/>
</linearGradient>
<linearGradient id="paint3_linear_118_591" x1="361.1" y1="331.661" x2="361.1" y2="316.687" gradientUnits="userSpaceOnUse">
<stop stop-color="#808080" stop-opacity="0.25"/>
<stop offset="0.54" stop-color="#808080" stop-opacity="0.12"/>
<stop offset="1" stop-color="#808080" stop-opacity="0.1"/>
</linearGradient>
<linearGradient id="paint4_linear_118_591" x1="318.631" y1="334.634" x2="318.631" y2="239.457" gradientUnits="userSpaceOnUse">
<stop stop-color="#808080" stop-opacity="0.25"/>
<stop offset="0.54" stop-color="#808080" stop-opacity="0.12"/>
<stop offset="1" stop-color="#808080" stop-opacity="0.1"/>
</linearGradient>
<linearGradient id="paint5_linear_118_591" x1="318.631" y1="334.634" x2="318.631" y2="239.457" gradientUnits="userSpaceOnUse">
<stop stop-color="#808080" stop-opacity="0.25"/>
<stop offset="0.54" stop-color="#808080" stop-opacity="0.12"/>
<stop offset="1" stop-color="#808080" stop-opacity="0.1"/>
</linearGradient>
<linearGradient id="paint6_linear_118_591" x1="275.928" y1="669.93" x2="275.928" y2="630.61" gradientUnits="userSpaceOnUse">
<stop stop-color="#808080" stop-opacity="0.25"/>
<stop offset="0.54" stop-color="#808080" stop-opacity="0.12"/>
<stop offset="1" stop-color="#808080" stop-opacity="0.1"/>
</linearGradient>
<linearGradient id="paint7_linear_118_591" x1="275.928" y1="669.93" x2="275.928" y2="630.61" gradientUnits="userSpaceOnUse">
<stop stop-color="#808080" stop-opacity="0.25"/>
<stop offset="0.54" stop-color="#808080" stop-opacity="0.12"/>
<stop offset="1" stop-color="#808080" stop-opacity="0.1"/>
</linearGradient>
<linearGradient id="paint8_linear_118_591" x1="359.561" y1="674.008" x2="359.561" y2="637.96" gradientUnits="userSpaceOnUse">
<stop stop-color="#808080" stop-opacity="0.25"/>
<stop offset="0.54" stop-color="#808080" stop-opacity="0.12"/>
<stop offset="1" stop-color="#808080" stop-opacity="0.1"/>
</linearGradient>
<linearGradient id="paint9_linear_118_591" x1="278.159" y1="653.466" x2="278.159" y2="386.889" gradientUnits="userSpaceOnUse">
<stop stop-color="#808080" stop-opacity="0.25"/>
<stop offset="0.54" stop-color="#808080" stop-opacity="0.12"/>
<stop offset="1" stop-color="#808080" stop-opacity="0.1"/>
</linearGradient>
<linearGradient id="paint10_linear_118_591" x1="278.159" y1="653.466" x2="278.159" y2="386.889" gradientUnits="userSpaceOnUse">
<stop stop-color="#808080" stop-opacity="0.25"/>
<stop offset="0.54" stop-color="#808080" stop-opacity="0.12"/>
<stop offset="1" stop-color="#808080" stop-opacity="0.1"/>
</linearGradient>
<linearGradient id="paint11_linear_118_591" x1="319.396" y1="658.325" x2="319.396" y2="403.749" gradientUnits="userSpaceOnUse">
<stop stop-color="#808080" stop-opacity="0.25"/>
<stop offset="0.54" stop-color="#808080" stop-opacity="0.12"/>
<stop offset="1" stop-color="#808080" stop-opacity="0.1"/>
</linearGradient>
<linearGradient id="paint12_linear_118_591" x1="296.969" y1="222.671" x2="296.969" y2="165.033" gradientUnits="userSpaceOnUse">
<stop stop-color="#808080" stop-opacity="0.25"/>
<stop offset="0.54" stop-color="#808080" stop-opacity="0.12"/>
<stop offset="1" stop-color="#808080" stop-opacity="0.1"/>
</linearGradient>
<linearGradient id="paint13_linear_118_591" x1="304.356" y1="425.572" x2="304.356" y2="386.889" gradientUnits="userSpaceOnUse">
<stop stop-color="#808080" stop-opacity="0.25"/>
<stop offset="0.54" stop-color="#808080" stop-opacity="0.12"/>
<stop offset="1" stop-color="#808080" stop-opacity="0.1"/>
</linearGradient>
<linearGradient id="paint14_linear_118_591" x1="298.951" y1="423.945" x2="298.951" y2="200.919" gradientUnits="userSpaceOnUse">
<stop stop-color="#808080" stop-opacity="0.25"/>
<stop offset="0.54" stop-color="#808080" stop-opacity="0.12"/>
<stop offset="1" stop-color="#808080" stop-opacity="0.1"/>
</linearGradient>
<linearGradient id="paint15_linear_118_591" x1="317.704" y1="351.18" x2="317.704" y2="247.75" gradientUnits="userSpaceOnUse">
<stop stop-color="#808080" stop-opacity="0.25"/>
<stop offset="0.54" stop-color="#808080" stop-opacity="0.12"/>
<stop offset="1" stop-color="#808080" stop-opacity="0.1"/>
</linearGradient>
<linearGradient id="paint16_linear_118_591" x1="313.403" y1="203.812" x2="313.403" y2="168.296" gradientUnits="userSpaceOnUse">
<stop stop-color="#808080" stop-opacity="0.25"/>
<stop offset="0.54" stop-color="#808080" stop-opacity="0.12"/>
<stop offset="1" stop-color="#808080" stop-opacity="0.1"/>
</linearGradient>
<linearGradient id="paint17_linear_118_591" x1="321.345" y1="200.919" x2="321.345" y2="129.138" gradientUnits="userSpaceOnUse">
<stop stop-color="#808080" stop-opacity="0.25"/>
<stop offset="0.54" stop-color="#808080" stop-opacity="0.12"/>
<stop offset="1" stop-color="#808080" stop-opacity="0.1"/>
</linearGradient>
<linearGradient id="paint18_linear_118_591" x1="320.411" y1="192.224" x2="320.411" y2="111.626" gradientUnits="userSpaceOnUse">
<stop stop-color="#808080" stop-opacity="0.25"/>
<stop offset="0.54" stop-color="#808080" stop-opacity="0.12"/>
<stop offset="1" stop-color="#808080" stop-opacity="0.1"/>
</linearGradient>
<linearGradient id="paint19_linear_118_591" x1="319.847" y1="191.684" x2="319.847" y2="111.085" gradientUnits="userSpaceOnUse">
<stop stop-color="#808080" stop-opacity="0.25"/>
<stop offset="0.54" stop-color="#808080" stop-opacity="0.12"/>
<stop offset="1" stop-color="#808080" stop-opacity="0.1"/>
</linearGradient>
<linearGradient id="paint20_linear_118_591" x1="310.543" y1="423.945" x2="310.543" y2="208.793" gradientUnits="userSpaceOnUse">
<stop stop-color="#808080" stop-opacity="0.25"/>
<stop offset="0.54" stop-color="#808080" stop-opacity="0.12"/>
<stop offset="1" stop-color="#808080" stop-opacity="0.1"/>
</linearGradient>
<linearGradient id="paint21_linear_118_591" x1="389.947" y1="367.225" x2="389.947" y2="339.583" gradientUnits="userSpaceOnUse">
<stop stop-color="#808080" stop-opacity="0.25"/>
<stop offset="0.54" stop-color="#808080" stop-opacity="0.12"/>
<stop offset="1" stop-color="#808080" stop-opacity="0.1"/>
</linearGradient>
<linearGradient id="paint22_linear_118_591" x1="365.546" y1="353.582" x2="365.546" y2="339.583" gradientUnits="userSpaceOnUse">
<stop stop-color="#808080" stop-opacity="0.25"/>
<stop offset="0.54" stop-color="#808080" stop-opacity="0.12"/>
<stop offset="1" stop-color="#808080" stop-opacity="0.1"/>
</linearGradient>
<linearGradient id="paint23_linear_118_591" x1="333.848" y1="355.354" x2="333.848" y2="246.122" gradientUnits="userSpaceOnUse">
<stop stop-color="#808080" stop-opacity="0.25"/>
<stop offset="0.54" stop-color="#808080" stop-opacity="0.12"/>
<stop offset="1" stop-color="#808080" stop-opacity="0.1"/>
</linearGradient>
<linearGradient id="paint24_linear_118_591" x1="281.503" y1="347.465" x2="281.503" y2="336.045" gradientUnits="userSpaceOnUse">
<stop stop-color="#808080" stop-opacity="0.25"/>
<stop offset="0.54" stop-color="#808080" stop-opacity="0.12"/>
<stop offset="1" stop-color="#808080" stop-opacity="0.1"/>
</linearGradient>
<clipPath id="clip0_118_591">
<rect width="895" height="674" fill="white"/>
</clipPath>
</defs>
</svg>
