<svg width="418" height="461" viewBox="0 0 418 461" fill="none" xmlns="http://www.w3.org/2000/svg">
<path d="M204.161 2.39423H192.295V48.8289H204.161V2.39423Z" fill="#008080"/>
<path d="M204.161 2.39423H192.295V48.8289H204.161V2.39423Z" fill="url(#paint0_radial_116_349)"/>
<g filter="url(#filter0_f_116_349)">
<path d="M412 420.326C412 439.392 321.056 454.867 209 454.867C96.944 454.867 6 439.392 6 420.326C6 401.259 96.944 385.785 209 385.785C321.056 385.785 412 401.259 412 420.326Z" fill="url(#paint1_radial_116_349)"/>
</g>
<path d="M392.264 244.743C392.264 258.683 390.768 352.863 387.932 365.936C380.956 401.799 358.375 422.446 324.464 430.305C308.703 433.307 290.775 367.487 271.319 367.12C251.862 366.753 230.877 431.84 209 431.84C187.021 431.84 165.941 366.717 146.407 367.019C126.874 367.321 108.887 433.049 93.0929 429.936C57.3317 423.878 38.6335 398.904 29.8162 364.756C27.1433 352.047 25.7361 258.264 25.7361 244.743C25.7361 141.465 107.838 57.6461 209 57.6461C310.162 57.6461 392.264 141.465 392.264 244.743Z" fill="#7EB6A9"/>
<path d="M392.264 244.743C392.264 258.683 390.768 352.863 387.932 365.936C380.956 401.799 358.375 422.446 324.464 430.305C308.703 433.307 290.775 367.487 271.319 367.12C251.862 366.753 230.877 431.84 209 431.84C187.021 431.84 165.941 366.717 146.407 367.019C126.874 367.321 108.887 433.049 93.0929 429.936C57.3317 423.878 38.6335 398.904 29.8162 364.756C27.1433 352.047 25.7361 258.264 25.7361 244.743C25.7361 141.465 107.838 57.6461 209 57.6461C310.162 57.6461 392.264 141.465 392.264 244.743Z" fill="url(#paint2_radial_116_349)"/>
<path d="M364.07 211.641C364.07 217.5 362.939 223.302 360.743 228.715C358.547 234.128 355.328 239.046 351.27 243.189C347.212 247.332 342.394 250.618 337.092 252.86C331.79 255.102 326.107 256.256 320.368 256.256C314.629 256.256 308.946 255.102 303.644 252.86C298.342 250.618 293.525 247.332 289.467 243.189C285.409 239.046 282.19 234.128 279.993 228.715C277.797 223.302 276.667 217.5 276.667 211.641C276.667 205.782 277.797 199.98 279.993 194.567C282.19 189.154 285.409 184.236 289.467 180.093C293.525 175.95 298.342 172.664 303.644 170.422C308.946 168.18 314.629 167.026 320.368 167.026C326.107 167.026 331.79 168.18 337.092 170.422C342.394 172.664 347.212 175.95 351.27 180.093C355.328 184.236 358.547 189.154 360.743 194.567C362.939 199.98 364.07 205.782 364.07 211.641Z" fill="white"/>
<path d="M364.07 211.641C364.07 217.5 362.939 223.302 360.743 228.715C358.547 234.128 355.328 239.046 351.27 243.189C347.212 247.332 342.394 250.618 337.092 252.86C331.79 255.102 326.107 256.256 320.368 256.256C314.629 256.256 308.946 255.102 303.644 252.86C298.342 250.618 293.525 247.332 289.467 243.189C285.409 239.046 282.19 234.128 279.993 228.715C277.797 223.302 276.667 217.5 276.667 211.641C276.667 205.782 277.797 199.98 279.993 194.567C282.19 189.154 285.409 184.236 289.467 180.093C293.525 175.95 298.342 172.664 303.644 170.422C308.946 168.18 314.629 167.026 320.368 167.026C326.107 167.026 331.79 168.18 337.092 170.422C342.394 172.664 347.212 175.95 351.27 180.093C355.328 184.236 358.547 189.154 360.743 194.567C362.939 199.98 364.07 205.782 364.07 211.641Z" fill="url(#paint3_radial_116_349)"/>
<path d="M361.25 214.519C361.25 218.11 360.557 221.666 359.211 224.984C357.865 228.302 355.892 231.316 353.405 233.855C350.918 236.394 347.965 238.409 344.715 239.783C341.466 241.157 337.983 241.864 334.465 241.864C330.948 241.864 327.465 241.157 324.215 239.783C320.966 238.409 318.013 236.394 315.526 233.855C313.039 231.316 311.066 228.302 309.72 224.984C308.373 221.666 307.681 218.11 307.681 214.519C307.681 210.928 308.373 207.373 309.72 204.055C311.066 200.737 313.039 197.723 315.526 195.184C318.013 192.645 320.966 190.63 324.215 189.256C327.465 187.882 330.948 187.175 334.465 187.175C337.983 187.175 341.466 187.882 344.715 189.256C347.965 190.63 350.918 192.645 353.405 195.184C355.892 197.723 357.865 200.737 359.211 204.055C360.557 207.373 361.25 210.928 361.25 214.519Z" fill="black"/>
<path d="M251.292 211.641C251.292 217.5 250.161 223.302 247.965 228.715C245.769 234.128 242.55 239.046 238.492 243.189C234.434 247.332 229.616 250.618 224.314 252.86C219.012 255.102 213.329 256.256 207.59 256.256C201.851 256.256 196.169 255.102 190.867 252.86C185.564 250.618 180.747 247.332 176.689 243.189C172.631 239.046 169.412 234.128 167.215 228.715C165.019 223.302 163.889 217.5 163.889 211.641C163.889 205.782 165.019 199.98 167.215 194.567C169.412 189.154 172.631 184.236 176.689 180.093C180.747 175.95 185.564 172.664 190.867 170.422C196.169 168.18 201.851 167.026 207.59 167.026C213.329 167.026 219.012 168.18 224.314 170.422C229.616 172.664 234.434 175.95 238.492 180.093C242.55 184.236 245.769 189.154 247.965 194.567C250.161 199.98 251.292 205.782 251.292 211.641Z" fill="white"/>
<path d="M251.292 211.641C251.292 217.5 250.161 223.302 247.965 228.715C245.769 234.128 242.55 239.046 238.492 243.189C234.434 247.332 229.616 250.618 224.314 252.86C219.012 255.102 213.329 256.256 207.59 256.256C201.851 256.256 196.169 255.102 190.867 252.86C185.564 250.618 180.747 247.332 176.689 243.189C172.631 239.046 169.412 234.128 167.215 228.715C165.019 223.302 163.889 217.5 163.889 211.641C163.889 205.782 165.019 199.98 167.215 194.567C169.412 189.154 172.631 184.236 176.689 180.093C180.747 175.95 185.564 172.664 190.867 170.422C196.169 168.18 201.851 167.026 207.59 167.026C213.329 167.026 219.012 168.18 224.314 170.422C229.616 172.664 234.434 175.95 238.492 180.093C242.55 184.236 245.769 189.154 247.965 194.567C250.161 199.98 251.292 205.782 251.292 211.641Z" fill="url(#paint4_radial_116_349)"/>
<path d="M248.472 214.519C248.472 218.11 247.779 221.666 246.433 224.984C245.087 228.302 243.114 231.316 240.627 233.855C238.14 236.394 235.187 238.409 231.938 239.783C228.688 241.157 225.205 241.864 221.688 241.864C218.17 241.864 214.687 241.157 211.437 239.783C208.188 238.409 205.235 236.394 202.748 233.855C200.261 231.316 198.288 228.302 196.942 224.984C195.596 221.666 194.903 218.11 194.903 214.519C194.903 210.928 195.596 207.373 196.942 204.055C198.288 200.737 200.261 197.723 202.748 195.184C205.235 192.645 208.188 190.63 211.437 189.256C214.687 187.882 218.17 187.175 221.688 187.175C225.205 187.175 228.688 187.882 231.938 189.256C235.187 190.63 238.14 192.645 240.627 195.184C243.114 197.723 245.087 200.737 246.433 204.055C247.779 207.373 248.472 210.928 248.472 214.519Z" fill="black"/>
<g filter="url(#filter1_f_116_349)">
<path d="M357.703 397.301C344.329 413.845 328.117 422.757 321.515 417.194C314.914 411.632 320.41 393.691 333.783 377.147C347.157 360.604 363.369 351.692 369.971 357.254C376.572 362.817 371.077 380.758 357.703 397.301Z" fill="white" fill-opacity="0.434389"/>
</g>
<path fill-rule="evenodd" clip-rule="evenodd" d="M66.801 122.984C159.504 176.598 273.713 166.849 346.486 118.946C317.95 63.1523 224.83 34.688 202.702 33.4006C173.418 31.6969 91.3854 69.8253 66.801 122.984Z" fill="#0000FF"/>
<path fill-rule="evenodd" clip-rule="evenodd" d="M197.813 17.5961C199.455 19.9443 51.454 54.7145 39.6093 17.5961C36.0375 6.40305 136.509 -8.64954 197.813 17.5961Z" fill="#FFBA00"/>
<path fill-rule="evenodd" clip-rule="evenodd" d="M197.813 17.5961C199.455 19.9443 51.454 54.7145 39.6093 17.5961C36.0375 6.40305 136.509 -8.64954 197.813 17.5961Z" fill="url(#paint5_radial_116_349)"/>
<path fill-rule="evenodd" clip-rule="evenodd" d="M201.689 17.0314C200.046 14.6832 348.047 -20.087 359.892 17.0314C363.464 28.2245 262.992 43.2771 201.689 17.0314Z" fill="#FFBA00"/>
<path fill-rule="evenodd" clip-rule="evenodd" d="M201.689 17.0314C200.046 14.6832 348.047 -20.087 359.892 17.0314C363.464 28.2245 262.992 43.2771 201.689 17.0314Z" fill="url(#paint6_radial_116_349)"/>
<path d="M210.588 17.5361C210.588 20.8826 209.286 24.0921 206.968 26.4584C204.65 28.8248 201.506 30.1542 198.228 30.1542C194.95 30.1542 191.806 28.8248 189.488 26.4584C187.171 24.0921 185.868 20.8826 185.868 17.5361C185.868 14.1896 187.171 10.9801 189.488 8.61376C191.806 6.2474 194.95 4.91797 198.228 4.91797C201.506 4.91797 204.65 6.2474 206.968 8.61376C209.286 10.9801 210.588 14.1896 210.588 17.5361Z" fill="#FFBA00"/>
<path d="M210.588 17.5361C210.588 20.8826 209.286 24.0921 206.968 26.4584C204.65 28.8248 201.506 30.1542 198.228 30.1542C194.95 30.1542 191.806 28.8248 189.488 26.4584C187.171 24.0921 185.868 20.8826 185.868 17.5361C185.868 14.1896 187.171 10.9801 189.488 8.61376C191.806 6.2474 194.95 4.91797 198.228 4.91797C201.506 4.91797 204.65 6.2474 206.968 8.61376C209.286 10.9801 210.588 14.1896 210.588 17.5361Z" fill="url(#paint7_radial_116_349)"/>
<path fill-rule="evenodd" clip-rule="evenodd" d="M201.071 33.3087C214.764 66.8571 237.574 113.285 248.532 155.704C270.578 152.211 291.671 146.214 311.071 137.913C288.105 101.605 248.722 61.1189 204.902 33.6873C204.17 33.6079 203.3 33.4712 202.677 33.4349C202.159 33.4048 201.621 33.314 201.071 33.3087ZM196.498 33.5611C194.782 33.7184 192.876 33.9671 190.936 34.3182C189.634 34.5536 188.348 34.9003 186.981 35.2014C186.904 35.2184 186.811 35.1843 186.733 35.2014C163.435 50.8684 115.403 108.698 103.677 140.689C123.889 148.518 144.673 153.729 165.475 156.588C168.4 113.845 184.371 65.3214 196.498 33.5611Z" fill="#FFFF00"/>
<path fill-rule="evenodd" clip-rule="evenodd" d="M66.801 122.984C159.504 176.598 273.713 166.849 346.486 118.946C317.95 63.1523 224.83 34.688 202.702 33.4006C173.418 31.6969 91.3854 69.8253 66.801 122.984Z" fill="url(#paint8_radial_116_349)"/>
<g filter="url(#filter2_f_116_349)">
<path d="M127.261 149.438C98.9949 178.999 69.7271 196.684 61.9315 188.915C54.1359 181.146 70.75 150.849 99.0165 121.288C127.283 91.7275 156.551 74.0418 164.346 81.8112C172.142 89.5806 155.528 119.877 127.261 149.438Z" fill="white" fill-opacity="0.627451"/>
</g>
<defs>
<filter id="filter0_f_116_349" x="0.61073" y="380.396" width="416.779" height="79.8604" filterUnits="userSpaceOnUse" color-interpolation-filters="sRGB">
<feFlood flood-opacity="0" result="BackgroundImageFix"/>
<feBlend mode="normal" in="SourceGraphic" in2="BackgroundImageFix" result="shape"/>
<feGaussianBlur stdDeviation="2.69464" result="effect1_foregroundBlur_116_349"/>
</filter>
<filter id="filter1_f_116_349" x="312.803" y="349.68" width="65.8811" height="75.0877" filterUnits="userSpaceOnUse" color-interpolation-filters="sRGB">
<feFlood flood-opacity="0" result="BackgroundImageFix"/>
<feBlend mode="normal" in="SourceGraphic" in2="BackgroundImageFix" result="shape"/>
<feGaussianBlur stdDeviation="2.95922" result="effect1_foregroundBlur_116_349"/>
</filter>
<filter id="filter2_f_116_349" x="52.2171" y="72.1895" width="121.844" height="126.347" filterUnits="userSpaceOnUse" color-interpolation-filters="sRGB">
<feFlood flood-opacity="0" result="BackgroundImageFix"/>
<feBlend mode="normal" in="SourceGraphic" in2="BackgroundImageFix" result="shape"/>
<feGaussianBlur stdDeviation="3.89586" result="effect1_foregroundBlur_116_349"/>
</filter>
<radialGradient id="paint0_radial_116_349" cx="0" cy="0" r="1" gradientUnits="userSpaceOnUse" gradientTransform="translate(198.228 25.6118) scale(5.93262 30.7882)">
<stop stop-opacity="0"/>
<stop offset="1" stop-opacity="0.571956"/>
</radialGradient>
<radialGradient id="paint1_radial_116_349" cx="0" cy="0" r="1" gradientUnits="userSpaceOnUse" gradientTransform="translate(209 420.326) scale(284.778 34.5409)">
<stop/>
<stop offset="1" stop-opacity="0"/>
</radialGradient>
<radialGradient id="paint2_radial_116_349" cx="0" cy="0" r="1" gradientUnits="userSpaceOnUse" gradientTransform="translate(144.153 132.485) rotate(63.6064) scale(295.098 279.297)">
<stop stop-opacity="0"/>
<stop offset="1" stop-opacity="0.571956"/>
</radialGradient>
<radialGradient id="paint3_radial_116_349" cx="0" cy="0" r="1" gradientUnits="userSpaceOnUse" gradientTransform="translate(303.452 188.614) rotate(75.959) scale(69.7258 64.2802)">
<stop stop-opacity="0"/>
<stop offset="1" stop-opacity="0.571956"/>
</radialGradient>
<radialGradient id="paint4_radial_116_349" cx="0" cy="0" r="1" gradientUnits="userSpaceOnUse" gradientTransform="translate(190.674 188.614) rotate(75.959) scale(69.7258 64.2802)">
<stop stop-opacity="0"/>
<stop offset="1" stop-opacity="0.571956"/>
</radialGradient>
<radialGradient id="paint5_radial_116_349" cx="0" cy="0" r="1" gradientUnits="userSpaceOnUse" gradientTransform="translate(71.2104 10.0945) scale(118.211 32.9602)">
<stop stop-opacity="0"/>
<stop offset="1" stop-opacity="0.571956"/>
</radialGradient>
<radialGradient id="paint6_radial_116_349" cx="0" cy="0" r="1" gradientUnits="userSpaceOnUse" gradientTransform="translate(255.122 9.23815) rotate(1.29444) scale(134.066 20.8466)">
<stop stop-opacity="0"/>
<stop offset="1" stop-opacity="0.571956"/>
</radialGradient>
<radialGradient id="paint7_radial_116_349" cx="0" cy="0" r="1" gradientUnits="userSpaceOnUse" gradientTransform="translate(194.273 12.9935) rotate(1.49948) scale(19.2876 17.6651)">
<stop stop-opacity="0"/>
<stop offset="1" stop-opacity="0.571956"/>
</radialGradient>
<radialGradient id="paint8_radial_116_349" cx="0" cy="0" r="1" gradientUnits="userSpaceOnUse" gradientTransform="translate(175.003 70.0313) rotate(5.18091) scale(218.842 100.27)">
<stop stop-opacity="0"/>
<stop offset="1" stop-opacity="0.571956"/>
</radialGradient>
</defs>
</svg>
